<svg xmlns="http://www.w3.org/2000/svg" width="80" height="80" viewBox="0 0 80 80">
  <g id="_80x80_3" data-name="80x80_3" transform="translate(-295 -170)">
    <rect id="Rectangle_35" data-name="Rectangle 35" width="80" height="80" transform="translate(295 170)" fill="none"/>
    <g id="Group_43" data-name="Group 43" transform="translate(304.281 187.462)">
      <path id="Path_256" data-name="Path 256" d="M79.812,54.663c-2.578.12-5.995-2.99-6.115-5.4a5.783,5.783,0,0,1,5.013-5.678,5.745,5.745,0,0,1,5.5,5.013C84.334,51.182,82.391,54.543,79.812,54.663Z" transform="translate(-30.291 -17.868)" fill="#ffb503" fill-rule="evenodd"/>
      <path id="Path_257" data-name="Path 257" d="M13,31.358V24.339L63.886,22v7.019Z" transform="translate(-5.097 -8.908)" fill="#e24014" fill-rule="evenodd"/>
      <path id="Path_258" data-name="Path 258" d="M73.375,54.637c-4.441,1.654-6.512-1.531-6.673-4.958-.159-3.4,2.434-5.821,6.209-4.974a6.33,6.33,0,0,0-2.119,4.957A7.441,7.441,0,0,0,73.375,54.637Z" transform="translate(-27.386 -18.263)" fill="#e24014" fill-rule="evenodd"/>
      <path id="Path_259" data-name="Path 259" d="M56.249,42.922l-43.237,2.02a4.747,4.747,0,0,1-4.892-4.456l-.109-2.337L6.9,38.217a4.747,4.747,0,0,1-4.942-4.381L.724,7.49A5.246,5.246,0,0,1,5.178,2.562L48.415.543A4.747,4.747,0,0,1,53.307,5l.136,2.922,1.753.018c2.526-.218,4.169,1.4,4.287,3.938l1.231,26.346A4.515,4.515,0,0,1,56.249,42.922ZM52.111,4.469a3.317,3.317,0,0,0-3.642-2.758L5.232,3.731C2.927,3.839,1.839,6.3,1.891,7.4L3.119,33.692C3.3,37.477,8.446,36.98,8.446,36.98L6.92,14.778a4.747,4.747,0,0,1,4.456-4.893l40.9-1.91Zm6.17,6.738c.175-1.1-1.346-2.279-2.447-2.228l-44.821,2.1a3.1,3.1,0,0,0-2.953,3.057l.027.584,50.247-2.347Zm.109,2.337L8.143,15.891l.273,5.843,50.248-2.347Zm.328,7.011L8.47,22.9l.819,17.528a3.58,3.58,0,0,0,3.669,3.342l43.236-1.9c1.1-.167,3.455-1.365,3.342-3.785ZM49.549,37.379a9.022,9.022,0,0,1-2.891-.612,3.058,3.058,0,0,1-2.367.857c-3.278.153-5.424-2.7-5.577-5.988-.154-2.853,1.8-6.063,5.083-5.8a2.946,2.946,0,0,1,2.348-.048A5.906,5.906,0,0,1,48.45,25.2a5.969,5.969,0,0,1,6.225,5.689C54.829,34.481,52.828,37.226,49.549,37.379ZM39.9,31.39A4.948,4.948,0,0,0,45.4,36.4a6.257,6.257,0,0,1-2.582-4.892,6.024,6.024,0,0,1,2.119-5.041C41.672,26.622,39.774,28.622,39.9,31.39Zm13.438-.628a4.681,4.681,0,1,0-9.352.437,5.744,5.744,0,0,0,5.505,5.012C52.073,36.09,53.462,33.342,53.341,30.762ZM34.75,36.336,15,37.236c-.714.033-.705-.4-1.039-1.114a.9.9,0,0,1,.93-1.224L34.167,34a1.091,1.091,0,0,1,1.223,1.114A.924.924,0,0,1,34.75,36.336ZM28.188,31.35l-13.438.628a1.091,1.091,0,0,1-1.223-1.114,1.148,1.148,0,0,1,1.187-1.225L27.9,29.023a1.242,1.242,0,0,1,1.4,1.1A1.091,1.091,0,0,1,28.188,31.35Z" fill="#4d4d4d" fill-rule="evenodd"/>
    </g>
  </g>
</svg>
