<svg xmlns="http://www.w3.org/2000/svg" width="80" height="80" viewBox="0 0 80 80">
  <g id="_80x80_4" data-name="80x80_4" transform="translate(-286 -170)">
    <rect id="Rectangle_34" data-name="Rectangle 34" width="80" height="80" transform="translate(286 170)" fill="none"/>
    <g id="Group_44" data-name="Group 44" transform="translate(295.056 190)">
      <path id="Path_260" data-name="Path 260" d="M30.362,6,7,13.109l16.76,16.76Z" transform="translate(-2.98 -2.952)" fill="#ffb503" fill-rule="evenodd"/>
      <path id="Path_261" data-name="Path 261" d="M65,2V6.062l11.819,1.8-10.8,12.932,1.524,7.11L88.286,12.8Z" transform="translate(-31.522 -0.984)" fill="#e24014" fill-rule="evenodd"/>
      <path id="Path_262" data-name="Path 262" d="M58.871,32.5a22.3,22.3,0,0,1-3.964,2.252,23.5,23.5,0,0,1-4.67,1.811l-3.147,3.7a.941.941,0,0,1-.743.362H14.85a.939.939,0,0,1-.768-.4l-1.429-3.667A91.271,91.271,0,0,1,3,32C1.453,31.1.8,30.778.972,29.965c.057-.259-.007-.508,1.016-.508H52.268c.59,0,.508,0,.508.508s.082.508-.508.508H1.988c2.215,1.118,7.557,3.7,10.666,5.079h26.41c.59,0,.508,0,.508.508,0,.559.082.508-.508.508H13.669l1.016,3.047H46.174l2.539-3.047H44.65c-.516,0-.508.051-.508-.508,0-.508-.008-.508.508-.508h5.587c3.127-1.379,7.584-3.452,9.65-4.571H57.347c-.516,0-.508,0-.508-.508s-.008-.508.508-.508h2.539c1.077,0,.96.248,1.016.508C61.079,31.286,60.751,31.612,58.871,32.5ZM33.985,20.823l-6.6,7.11L23.827,19.3l-2.539,9.142L2.5,9.649l26.41-8.126L28.4,3.555,32.969,4.57V0L57.347,11.681,35.508,27.933ZM11.893,8.791a1.157,1.157,0,0,0-1.278,1.115,1.271,1.271,0,0,0,1.278,1.26c.7,0,1.675-.566,1.675-1.26S12.595,8.791,11.893,8.791Zm1.026-.686c1.121-.083,1.335.7,1.335,1.608a2.284,2.284,0,0,1-4.568,0A2.216,2.216,0,0,1,10.05,8.5l-6.031,1.66L20.78,26.41l6.6-23.363ZM33.985,1.523V4.57l9.142,1.524ZM35.5,8.888a2.431,2.431,0,0,0,2.3,2.278,2.384,2.384,0,0,0,2.4-2.278,2.411,2.411,0,0,0-2.4-2.209A2.474,2.474,0,0,0,35.5,8.888ZM40.079,6.6a2.8,2.8,0,0,1,1.016,2.032c0,1.726-.609,3.555-3.047,3.555-1.752,0-3.555-.754-3.555-3.047a3.83,3.83,0,0,1,1.524-3.047L27.89,4.57,24.3,17.489,27.89,25.9,45.158,7.11Zm8.99,3.046a1.646,1.646,0,0,0-1.828,1.78c0,.591.637,1.351,1.828,1.351a1.545,1.545,0,0,0,1.167-1.351C50.236,10.333,49.554,9.648,49.069,9.648Zm-.559,6.7a2.241,2.241,0,0,0-2.285-2.042c-1.166,0-1.625.834-1.625,2.042,0,1.033.459,2.011,1.625,2.011A2.359,2.359,0,0,0,48.511,16.349ZM45.666,19.3a3.46,3.46,0,0,1-2.54-3.047,3.047,3.047,0,1,1,6.095,0c0,.417-.177.246-.179.288l6.273-4.859L50.745,9.649a3.474,3.474,0,0,1,.508,1.524,2.631,2.631,0,0,1-2.539,2.539,2.812,2.812,0,0,1-2.54-2.732c0-1.071,1.332-2.038,2.033-2.347L46.174,7.618,35,19.807l1.016,6.6ZM31.167,8.52c.678,0,1.67.281,1.793.771a2.379,2.379,0,0,1-.137,3.4,2.463,2.463,0,0,1-3.446-.135,4.412,4.412,0,0,1-.646-1.724,2.326,2.326,0,0,1,.784-1.539C30.359,8.746,30.553,8.52,31.167,8.52Zm-1.3,3.58a1.808,1.808,0,0,0,1.331.574c.319,0,1.108-.081,1.212-.323a2.78,2.78,0,0,0,.769-1.377c.193-.473-.341-.924-.665-1.269a1.821,1.821,0,0,0-2.541-.1c-.355.322-.359.759-.578,1.232A1.735,1.735,0,0,0,29.871,12.1ZM16.209,16.76a3.135,3.135,0,0,1-3.047-3.047,3.172,3.172,0,0,1,3.047-3.047,2.924,2.924,0,0,1,3.047,3.047C19.256,15.518,18.672,16.76,16.209,16.76ZM16.2,11.672a2.039,2.039,0,0,0-2.035,2.039A2.37,2.37,0,0,0,16.2,16.1a2.367,2.367,0,0,0,2.031-2.389A2.038,2.038,0,0,0,16.2,11.672Z" transform="translate(0)" fill="#4d4d4d" fill-rule="evenodd"/>
    </g>
  </g>
</svg>
