<svg xmlns="http://www.w3.org/2000/svg" width="80" height="80" viewBox="0 0 80 80">
  <g id="_80x80_1" data-name="80x80_1" transform="translate(-290 -150)">
    <rect id="Rectangle_37" data-name="Rectangle 37" width="80" height="80" transform="translate(290 150)" fill="none"/>
    <g id="Group_41" data-name="Group 41" transform="translate(305.824 165.782)">
      <path id="Path_248" data-name="Path 248" d="M34.4,34.414c-7.855,7.852-20.591,7.852-28,0C-1.9,26.562-1.9,13.83,6.405,6.493c7.4-8.366,20.14-8.366,28,0C42.256,13.83,42.256,26.562,34.4,34.414ZM30.1,9.907c-4.964-5.476-14.36-5.476-19.838,0a14.773,14.773,0,0,0,0,19.83c5.478,5.476,14.874,5.476,19.838,0A14.019,14.019,0,0,0,30.1,9.907Z" fill="#d12027" fill-rule="evenodd"/>
      <path id="Path_249" data-name="Path 249" d="M62.47,55.874,70.8,64.209a3.79,3.79,0,0,1,0,5.36c-1.165,1.48-3.88,1.48-5.359,0l-8.335-7.983Z" transform="translate(-23.74 -23.206)" fill="#eca100" fill-rule="evenodd"/>
      <path id="Path_250" data-name="Path 250" d="M47.065,46.362c-1.165,1.48-3.88,1.48-5.359,0l-8.335-7.983,5.359-5.711L47.065,41A3.79,3.79,0,0,1,47.065,46.362Zm-.824-4.535-7.51-7.51-3.71,4.062,7.51,7.158a2.624,2.624,0,0,0,3.71-3.71ZM6.405,34.414C-1.9,26.562-1.9,13.83,6.405,6.493c7.4-8.366,20.14-8.366,28,0,7.856,7.338,7.856,20.069,0,27.921S13.809,42.266,6.405,34.414ZM33.652,6.727a19.052,19.052,0,1,0,0,26.939A19.063,19.063,0,0,0,33.652,6.727ZM9.51,30.485a15.9,15.9,0,0,1,0-21.327,15.083,15.083,0,1,1,0,21.327ZM30.1,9.907c-4.964-5.476-14.36-5.476-19.838,0a14.773,14.773,0,0,0,0,19.83c5.478,5.476,14.874,5.476,19.838,0A14.019,14.019,0,0,0,30.1,9.907ZM10.2,17.743l-.864-.252a12.764,12.764,0,0,1,3.243-5.476c2.5-2.5,5.784-3.236,9.065-3.352v.5a11.889,11.889,0,0,0-8.428,3.493A22.339,22.339,0,0,0,10.2,17.743Z" fill="#4d4d4d" fill-rule="evenodd"/>
    </g>
  </g>
</svg>
