<svg xmlns="http://www.w3.org/2000/svg" width="80" height="80" viewBox="0 0 80 80">
  <g id="_80x80_2" data-name="80x80_2" transform="translate(-294 -150)">
    <rect id="Rectangle_36" data-name="Rectangle 36" width="80" height="80" transform="translate(294 150)" fill="none"/>
    <g id="Group_42" data-name="Group 42" transform="translate(308.312 159.841)">
      <path id="Path_251" data-name="Path 251" d="M.688,10.438,37.866.159l.023,8.635Z" fill="#e24014" fill-rule="evenodd"/>
      <path id="Path_252" data-name="Path 252" d="M40.06,58.394h0L2.86,59.6.688,10.438,37.866.159l.023,8.635,10.628-.469,2.172,49.157ZM36.236,1.546l-28.906,8.6L36.56,8.854Zm11.01,8.166-45.171,2,2.054,46.5,45.171-2Z" fill="#4d4d4d" fill-rule="evenodd"/>
      <path id="Path_253" data-name="Path 253" d="M52.479,45.27,44.714,56.089,36.68,46.327Z" transform="translate(-12.06 -15.115)" fill="#e24014" fill-rule="evenodd"/>
      <path id="Path_254" data-name="Path 254" d="M34.959,29.617,24.184,41.389,12.413,30.614Z" transform="translate(-3.929 -9.871)" fill="#ffb503" fill-rule="evenodd"/>
      <path id="Path_255" data-name="Path 255" d="M26.082,56.125,28.3,59.2l-6.643.293,3.1-3.307-.831-15.43L12.413,30.614l22.546-1L25.244,40.695ZM15.774,31.8,24.1,39.415l7.619-8.324ZM35.906,50.579l-7.357-9.5,15.8-1.057L37.234,50.844l.283,6.081L40.315,60l-6.643.293,2.516-3.307Zm5.58-9.269-10.628.469,5.637,7.072Z" transform="translate(-3.929 -9.871)" fill="#4d4d4d" fill-rule="evenodd"/>
    </g>
  </g>
</svg>
